<svg xmlns="http://www.w3.org/2000/svg" width="400" height="600" viewBox="0 0 400 600"><rect width="100%" height="100%" fill="#DDDDDD"/><path fill="#999999" d="M85.4 314.7h-4.94v-20.52h3.02q.96 0 1.26.9l.32 1.52q.54-.6 1.13-1.1t1.26-.86 1.44-.57 1.69-.21q1.94 0 3.19 1.05t1.87 2.79q.48-1.02 1.2-1.75t1.58-1.19 1.83-.68 1.95-.22q1.7 0 3.02.52t2.22 1.52 1.37 2.44.47 3.3v13.06h-4.94v-13.06q0-1.96-.86-2.95t-2.52-.99q-.76 0-1.41.26t-1.14.75-.77 1.23-.28 1.7v13.06H92.4v-13.06q0-2.06-.83-3t-2.43-.94q-1.08 0-2.01.53t-1.73 1.45zm39.4-5.3v-3.46q-2.14.1-3.6.37t-2.34.69-1.26.98-.38 1.22q0 1.3.77 1.86t2.01.56q1.52 0 2.63-.55t2.17-1.67m-10.44-10.78-.88-1.58q3.54-3.24 8.52-3.24 1.8 0 3.22.59t2.4 1.64 1.49 2.51.51 3.2v12.96h-2.24q-.7 0-1.08-.21t-.6-.85l-.44-1.48q-.78.7-1.52 1.23t-1.54.89-1.71.55-2.01.19q-1.3 0-2.4-.35t-1.9-1.05-1.24-1.74-.44-2.42q0-.78.26-1.55t.85-1.47 1.53-1.32 2.31-1.08 3.19-.75 4.16-.35v-1.2q0-2.06-.88-3.05t-2.54-.99q-1.2 0-1.99.28t-1.39.63-1.09.63-1.09.28q-.52 0-.88-.27t-.58-.63m24.26-3.2.3 2.32q.96-1.84 2.28-2.89t3.12-1.05q1.42 0 2.28.62l-.32 3.7q-.1.36-.29.51t-.51.15q-.3 0-.89-.1t-1.15-.1q-.82 0-1.46.24t-1.15.69-.9 1.09-.73 1.46v12.64h-4.94v-20.52h2.9q.76 0 1.06.27t.4.97m26.56 1.3-1.3 1.8q-.22.28-.43.44t-.61.16q-.38 0-.74-.23t-.86-.52-1.19-.52-1.71-.23q-1.3 0-2.28.47t-1.63 1.35-.97 2.13-.32 2.83q0 1.64.35 2.92t1.01 2.15 1.6 1.32 2.12.45 1.91-.29 1.23-.64.87-.64.83-.29q.6 0 .9.46l1.42 1.8q-.82.96-1.78 1.61t-1.99 1.04-2.12.55-2.17.16q-1.9 0-3.58-.71t-2.94-2.07-1.99-3.33-.73-4.49q0-2.26.65-4.19t1.91-3.34 3.12-2.21 4.28-.8q2.3 0 4.03.74t3.11 2.12m8.22-11.74v11.4q1.2-1.12 2.64-1.82t3.38-.7q1.68 0 2.98.57t2.17 1.6 1.32 2.46.45 3.15v13.06h-4.94v-13.06q0-1.88-.86-2.91t-2.62-1.03q-1.28 0-2.4.58t-2.12 1.58v14.84h-4.94v-29.72zm28.46 24.42v-3.46q-2.14.1-3.6.37t-2.34.69-1.26.98-.38 1.22q0 1.3.77 1.86t2.01.56q1.52 0 2.63-.55t2.17-1.67m-10.44-10.78-.88-1.58q3.54-3.24 8.52-3.24 1.8 0 3.22.59t2.4 1.64 1.49 2.51.51 3.2v12.96h-2.24q-.7 0-1.08-.21t-.6-.85l-.44-1.48q-.78.7-1.52 1.23t-1.54.89-1.71.55-2.01.19q-1.3 0-2.4-.35t-1.9-1.05-1.24-1.74-.44-2.42q0-.78.26-1.55t.85-1.47 1.53-1.32 2.31-1.08 3.19-.75 4.16-.35v-1.2q0-2.06-.88-3.05t-2.54-.99q-1.2 0-1.99.28t-1.39.63-1.09.63-1.09.28q-.52 0-.88-.27t-.58-.63m24.18-3.54.34 1.62q.62-.62 1.31-1.15t1.46-.9 1.65-.58 1.92-.21q1.68 0 2.98.57t2.17 1.6 1.32 2.46.45 3.15v13.06h-4.94v-13.06q0-1.88-.86-2.91t-2.62-1.03q-1.28 0-2.4.58t-2.12 1.58v14.84h-4.94v-20.52h3.02q.96 0 1.26.9m31.16 13.54v-9.2q-.84-1.02-1.83-1.44t-2.13-.42q-1.12 0-2.02.42t-1.54 1.27-.98 2.16-.34 3.09q0 1.8.29 3.05t.83 2.04 1.32 1.14 1.74.35q1.54 0 2.62-.64t2.04-1.82m0-23.64h4.94v29.72h-3.02q-.98 0-1.24-.9l-.42-1.98q-1.24 1.42-2.85 2.3t-3.75.88q-1.68 0-3.08-.7t-2.41-2.03-1.56-3.29-.55-4.48q0-2.28.62-4.24t1.78-3.4 2.78-2.25 3.64-.81q1.72 0 2.94.54t2.18 1.46zm9.98 9.2h4.96v20.52h-4.96zm5.64-5.98q0 .64-.26 1.2t-.69.98-1.01.67-1.24.25q-.64 0-1.21-.25t-.99-.67-.67-.98-.25-1.2q0-.66.25-1.24t.67-1 .99-.67 1.21-.25q.66 0 1.24.25t1.01.67.69 1 .26 1.24m18 8.2-1.12 1.78q-.2.32-.42.45t-.56.13q-.36 0-.77-.2t-.95-.45-1.23-.45-1.63-.2q-1.46 0-2.29.62t-.83 1.62q0 .66.43 1.11t1.14.79 1.61.61 1.83.59 1.83.73 1.61 1.04 1.14 1.51.43 2.12q0 1.48-.53 2.73t-1.57 2.16-2.57 1.42-3.53.51q-1.06 0-2.07-.19t-1.94-.53-1.72-.8-1.39-1l1.14-1.88q.22-.34.52-.52t.76-.18.87.26.95.56 1.27.56 1.85.26q.88 0 1.51-.21t1.04-.55.6-.79.19-.93q0-.72-.43-1.18t-1.14-.8-1.62-.61-1.86-.59-1.86-.75-1.62-1.09-1.14-1.62-.43-2.32q0-1.26.5-2.4t1.47-1.99 2.42-1.36 3.35-.51q2.12 0 3.86.7t2.9 1.84m7.84 5.68h9.32q0-.96-.27-1.81t-.81-1.49-1.37-1.01-1.93-.37q-2.14 0-3.37 1.22t-1.57 3.46m12.6 2.98h-12.7q.12 1.58.56 2.73t1.16 1.9 1.71 1.12 2.19.37 2.07-.28 1.52-.62 1.14-.62.95-.28q.62 0 .92.46l1.42 1.8q-.82.96-1.84 1.61t-2.13 1.04-2.26.55-2.23.16q-2.14 0-3.98-.71t-3.2-2.1-2.14-3.44-.78-4.75q0-2.1.68-3.95t1.95-3.22 3.1-2.17 4.13-.8q1.94 0 3.58.62t2.82 1.81 1.85 2.92.67 3.95q0 1.12-.24 1.51t-.92.39m18.5-8.66-1.12 1.78q-.2.32-.42.45t-.56.13q-.36 0-.77-.2t-.95-.45-1.23-.45-1.63-.2q-1.46 0-2.29.62t-.83 1.62q0 .66.43 1.11t1.14.79 1.61.61 1.83.59 1.83.73 1.61 1.04 1.14 1.51.43 2.12q0 1.48-.53 2.73t-1.57 2.16-2.57 1.42-3.53.51q-1.06 0-2.07-.19t-1.94-.53-1.72-.8-1.39-1l1.14-1.88q.22-.34.52-.52t.76-.18.87.26.95.56 1.27.56 1.85.26q.88 0 1.51-.21t1.04-.55.6-.79.19-.93q0-.72-.43-1.18t-1.14-.8-1.62-.61-1.86-.59-1.86-.75-1.62-1.09-1.14-1.62-.43-2.32q0-1.26.5-2.4t1.47-1.99 2.42-1.36 3.35-.51q2.12 0 3.86.7t2.9 1.84"/></svg>