<svg xmlns="http://www.w3.org/2000/svg" width="300" height="400" viewBox="0 0 300 400"><rect width="100%" height="100%" fill="#DDDDDD"/><path fill="#999999" d="M70.935 198.755h-4.75v9.95h-4.99v-24.88h9.38q4.25 0 6.65 1.94 2.41 1.94 2.41 5.41 0 1.93-1.01 3.31-1.01 1.39-2.96 2.24 2.21.65 3.17 2.17.97 1.52.97 3.76v1.83q0 1.04.28 2.18.28 1.13.96 1.68v.36h-5.14q-.68-.55-.89-1.83-.2-1.28-.2-2.43v-1.76q0-1.86-1.02-2.89-1.02-1.04-2.86-1.04m-4.75-11.09v7.25h4.3q2.1 0 3.14-.89 1.03-.89 1.03-2.63 0-1.71-1.03-2.72-1.04-1.01-3.05-1.01zm25.92 21.4q-4 0-6.39-2.56-2.39-2.57-2.39-6.52v-.68q0-4.12 2.26-6.78 2.27-2.67 6.08-2.65 3.74 0 5.81 2.25 2.06 2.26 2.06 6.1v2.72h-11.04l-.03.1q.14 1.83 1.22 3.01 1.09 1.18 2.95 1.18 1.66 0 2.75-.33 1.1-.34 2.39-1.05l1.35 3.07q-1.12.93-2.95 1.53-1.83.61-4.07.61m-.44-15.35q-1.39 0-2.19 1.06t-.99 2.79l.05.08h6.12v-.44q0-1.59-.75-2.54-.74-.95-2.24-.95m27.46 5.9v.36q0 4.1-1.9 6.59-1.89 2.5-5.29 2.5-1.46 0-2.59-.54-1.12-.54-1.93-1.58v8.87h-4.97v-25.6h4.49l.3 2.19q.82-1.22 1.97-1.88 1.15-.65 2.69-.65 3.44 0 5.33 2.68 1.9 2.68 1.9 7.06m-4.99.36v-.36q0-2.62-.87-4.24t-2.67-1.62q-1.13 0-1.92.46-.8.46-1.26 1.31v8.1q.46.79 1.26 1.2.79.41 1.96.41 1.81 0 2.65-1.42.85-1.42.85-3.84m7.3-.33v-.36q0-4.13 2.3-6.77 2.31-2.64 6.4-2.64 4.1 0 6.42 2.63 2.33 2.63 2.33 6.78v.36q0 4.17-2.32 6.8-2.32 2.62-6.4 2.62-4.1 0-6.42-2.62-2.31-2.63-2.31-6.8m4.97-.36v.36q0 2.53.89 4.06t2.87 1.53q1.93 0 2.83-1.54t.9-4.05v-.36q0-2.46-.91-4.01-.91-1.56-2.85-1.56t-2.83 1.57q-.9 1.56-.9 4m25.81-9.21-.53 4.43-1.83-.05q-1.11 0-1.83.46t-1.09 1.3v12.49h-4.98v-18.49h4.63l.23 2.73q.64-1.45 1.68-2.26 1.03-.81 2.38-.81.38 0 .69.06.32.06.65.14m3.4-4.39h4.99v4.53h3.11v3.5h-3.11v9.42q0 1.08.44 1.54.45.46 1.2.46.39 0 .67-.04.28-.05.66-.15l.43 3.61q-.75.25-1.47.38t-1.56.13q-2.58 0-3.97-1.42t-1.39-4.49v-9.44h-2.7v-3.5h2.7zm27.12 23.02h-4.99q-.28-.63-.47-1.33-.2-.7-.28-1.44-.77 1.35-2.03 2.24t-3 .89q-2.9 0-4.48-1.5-1.57-1.49-1.57-4.07 0-2.72 2.1-4.22 2.09-1.49 6.11-1.49h2.78v-1.47q0-1.33-.7-2.07-.7-.73-2.07-.73-1.21 0-1.87.59t-.66 1.63l-4.82-.02-.01-.1q-.12-2.34 2.03-4.04t5.66-1.7q3.31 0 5.38 1.68t2.07 4.79v7.64q0 1.3.19 2.45.2 1.14.63 2.27m-9.55-3.33q1.31 0 2.34-.65 1.02-.65 1.38-1.51v-2.61h-2.78q-1.59 0-2.41.79-.82.8-.82 1.93 0 .92.61 1.48.62.57 1.68.57m11.74-5.4v-.36q0-4.38 1.9-7.06 1.91-2.68 5.34-2.68 1.56 0 2.74.7t2.01 2l.4-2.36h4.3v18.4q0 3.61-2.36 5.58-2.37 1.98-6.59 1.98-1.4 0-2.98-.39-1.57-.38-2.9-1.05l.92-3.72q1.15.54 2.33.83 1.19.28 2.59.28 2.05 0 3.02-.86.97-.85.97-2.66v-1.68q-.83 1.05-1.94 1.59-1.11.55-2.54.55-3.4 0-5.31-2.5-1.9-2.51-1.9-6.59m4.99-.36v.36q0 2.42.82 3.82.82 1.39 2.66 1.39 1.15 0 1.94-.42.8-.42 1.28-1.22v-8.03q-.48-.84-1.28-1.3-.79-.46-1.9-.46-1.83 0-2.68 1.62-.84 1.62-.84 4.24m23.72 9.45q-4 0-6.39-2.56-2.4-2.57-2.4-6.52v-.68q0-4.12 2.27-6.78 2.26-2.67 6.07-2.65 3.75 0 5.81 2.25 2.07 2.26 2.07 6.1v2.72h-11.04l-.03.1q.13 1.83 1.22 3.01 1.08 1.18 2.95 1.18 1.65 0 2.75-.33 1.09-.34 2.39-1.05l1.35 3.07q-1.13.93-2.96 1.53-1.82.61-4.06.61m-.45-15.35q-1.38 0-2.19 1.06-.8 1.06-.99 2.79l.05.08h6.12v-.44q0-1.59-.74-2.54t-2.25-.95m20.78 9.9q0-.82-.79-1.42-.8-.6-2.95-1.06-3.28-.67-4.95-1.97-1.66-1.31-1.66-3.57 0-2.39 2.01-4.06 2-1.66 5.37-1.66 3.54 0 5.63 1.65 2.09 1.66 2.01 4.19l-.04.1h-4.81q0-1.11-.71-1.81t-2.08-.7q-1.21 0-1.91.59-.69.59-.69 1.48 0 .85.73 1.4.72.55 2.95.98 3.41.68 5.07 2 1.66 1.33 1.66 3.65 0 2.5-2.14 4.08-2.13 1.58-5.64 1.58-3.69 0-5.83-1.87-2.15-1.87-2.04-4.27l.03-.1h4.56q.05 1.49.98 2.15.92.67 2.41.67 1.38 0 2.11-.55.72-.54.72-1.48"/></svg>