<svg xmlns="http://www.w3.org/2000/svg" width="960" height="540" viewBox="0 0 960 540"><rect width="100%" height="100%" fill="#DDDDDD"/><path fill="#999999" d="M236.043 289.59q0-4.23-3-6.79-2.99-2.57-10.48-4.83-13.08-3.77-19.77-8.95t-6.69-14.18q0-9.01 7.67-14.71 7.67-5.71 19.59-5.71 12.07 0 19.67 6.41 7.59 6.41 7.34 15.82l-.1.3h-14.23q0-5.08-3.4-8.22-3.39-3.15-9.53-3.15-5.88 0-9.1 2.62-3.22 2.61-3.22 6.69 0 3.72 3.44 6.11 3.45 2.39 11.9 5.05 12.12 3.37 18.35 8.9 6.24 5.54 6.24 14.54 0 9.4-7.42 14.83-7.42 5.44-19.59 5.44-11.97 0-20.87-6.16-8.9-6.17-8.65-17.28l.1-.3h14.29q0 6.54 3.99 9.58 4 3.04 11.14 3.04 5.99 0 9.16-2.46 3.17-2.47 3.17-6.59m22.33-7.55v-1.05q0-12.17 6.79-19.94 6.78-7.77 18.8-7.77 12.07 0 18.91 7.74 6.84 7.75 6.84 19.97v1.05q0 12.28-6.81 20t-18.83 7.72q-12.08 0-18.89-7.72t-6.81-20m14.63-1.05v1.05q0 7.45 2.62 11.95 2.61 4.5 8.45 4.5 5.68 0 8.32-4.53 2.64-4.52 2.64-11.92v-1.05q0-7.24-2.67-11.82-2.66-4.58-8.4-4.58-5.68 0-8.32 4.6-2.64 4.61-2.64 11.8m61.21-50.75v78.46h-14.69v-78.46zm36.16 79.52q-11.77 0-18.81-7.55-7.04-7.54-7.04-19.16v-2.01q0-12.12 6.66-19.97 6.66-7.84 17.88-7.79 11.01 0 17.1 6.64 6.09 6.63 6.09 17.95v8h-32.49l-.1.3q.4 5.38 3.59 8.85 3.2 3.47 8.68 3.47 4.88 0 8.09-.98 3.22-.98 7.05-3.09l3.97 9.05q-3.32 2.72-8.7 4.5-5.38 1.79-11.97 1.79m-1.31-45.17q-4.07 0-6.44 3.12-2.36 3.12-2.91 8.2l.15.25h18v-1.31q0-4.67-2.19-7.47-2.18-2.79-6.61-2.79m47.18-10.31v54.42h-14.69v-54.42zm0-24.04v11.02h-14.69v-11.02zm27.51 0v78.46h-14.69v-78.46zm79.96 53.56h14.23l.1.31q.21 11.82-7.21 18.73-7.42 6.92-20.6 6.92-13.22 0-21.47-8.5t-8.25-21.88v-14.54q0-13.32 8.05-21.87 8.04-8.55 20.92-8.55 13.58 0 21.22 6.96 7.65 6.97 7.45 18.99l-.11.3h-14.28q0-7.24-3.47-11.09t-10.81-3.85q-6.59 0-10.46 5.36-3.88 5.36-3.88 13.65v14.64q0 8.4 4.08 13.75 4.07 5.36 11.01 5.36 6.89 0 10.19-3.7 3.29-3.69 3.29-10.99m39.03-29.52v54.42h-14.69v-54.42zm0-24.04v11.02h-14.69v-11.02zm42.24 23.64-1.55 13.03-5.39-.15q-3.26 0-5.38 1.35-2.11 1.36-3.22 3.83v36.76h-14.63v-54.42h13.63l.65 8.05q1.91-4.28 4.96-6.66 3.04-2.39 7.01-2.39 1.11 0 2.04.17.93.18 1.88.43m28.72 44.61q3.92 0 6.29-2.29 2.36-2.29 2.36-6.11h13.33l.15.3q.2 8.25-6.21 13.81t-15.92 5.56q-12.17 0-18.76-7.7-6.59-7.69-6.59-19.76v-1.51q0-12.02 6.57-19.77 6.56-7.74 18.73-7.74 10.06 0 16.22 5.73t5.96 15.09l-.1.3h-13.38q0-4.22-2.31-7.02-2.31-2.79-6.39-2.79-5.83 0-8.22 4.53t-2.39 11.67v1.51q0 7.29 2.39 11.74t8.27 4.45m65.03 10.21-1.31-7.85q-2.51 4.28-6.38 6.59-3.88 2.32-8.91 2.32-8.6 0-13.45-5.51t-4.85-17.13v-32.84h14.63v32.94q0 5.94 2.01 8.53 2.02 2.59 5.94 2.59 3.52 0 6.03-1.13 2.52-1.13 4.13-3.35v-39.58h14.68v54.42zm53.01-14.99q0-2.41-2.34-4.17t-8.67-3.12q-9.66-1.96-14.56-5.81-4.91-3.85-4.91-10.48 0-7.05 5.91-11.95t15.82-4.9q10.41 0 16.57 4.88 6.16 4.87 5.91 12.32l-.1.3h-14.18q0-3.27-2.09-5.33t-6.11-2.06q-3.57 0-5.61 1.73-2.04 1.74-2.04 4.35 0 2.52 2.14 4.13 2.14 1.6 8.68 2.86 10.06 2.01 14.93 5.91 4.88 3.9 4.88 10.74 0 7.34-6.28 11.99-6.29 4.66-16.6 4.66-10.86 0-17.18-5.51-6.31-5.51-6.01-12.55l.1-.3h13.43q.15 4.37 2.87 6.34 2.72 1.96 7.09 1.96 4.07 0 6.21-1.61t2.14-4.38"/></svg>