<svg xmlns="http://www.w3.org/2000/svg" width="600" height="600" viewBox="0 0 600 600"><rect width="100%" height="100%" fill="#DDDDDD"/><path fill="#999999" d="M147.4 282.225v5.52h-10.9v30.63h-6.73v-30.63h-10.9v-5.52zm9.95-1v14.25q1.5-1.4 3.3-2.28 1.8-.87 4.22-.87 2.1 0 3.73.71 1.62.71 2.71 2t1.65 3.08q.56 1.78.56 3.94v16.32h-6.17v-16.32q0-2.36-1.08-3.64-1.07-1.29-3.27-1.29-1.6 0-3 .72-1.4.73-2.65 1.98v18.55h-6.17v-37.15zm26.9 21.37h11.65q0-1.2-.34-2.26-.33-1.06-1.01-1.86t-1.71-1.26q-1.04-.47-2.41-.47-2.68 0-4.22 1.53t-1.96 4.32m15.75 3.73h-15.88q.15 1.97.7 3.41t1.45 2.38q.91.93 2.14 1.4 1.24.46 2.74.46t2.59-.35q1.08-.35 1.9-.78.81-.42 1.42-.77.62-.35 1.19-.35.77 0 1.15.57l1.78 2.25q-1.03 1.2-2.31 2.02-1.27.81-2.66 1.3-1.39.48-2.82.69-1.44.2-2.79.2-2.67 0-4.98-.89-2.3-.89-4-2.63t-2.67-4.3-.97-5.94q0-2.62.84-4.93.85-2.32 2.44-4.03t3.88-2.71 5.16-1q2.43 0 4.47.77 2.05.78 3.53 2.27 1.47 1.48 2.31 3.65.84 2.16.84 4.93 0 1.4-.3 1.89t-1.15.49m40.13-20.7-1.68 3.17q-.3.53-.64.77-.33.23-.83.23-.53 0-1.14-.38-.61-.39-1.46-.87-.86-.47-1.99-.86-1.14-.39-2.69-.39-1.4 0-2.45.34t-1.76.94q-.72.6-1.06 1.44-.35.83-.35 1.83 0 1.28.71 2.13t1.89 1.45q1.17.6 2.67 1.07 1.5.48 3.08 1.02 1.57.53 3.07 1.25 1.5.71 2.68 1.8 1.17 1.08 1.88 2.66.72 1.57.72 3.82 0 2.45-.84 4.59t-2.45 3.73q-1.61 1.58-3.94 2.5-2.32.91-5.32.91-1.73 0-3.4-.34-1.68-.34-3.22-.96-1.53-.63-2.88-1.5-1.35-.88-2.4-1.95l1.97-3.23q.25-.35.65-.58.4-.24.85-.24.63 0 1.35.51.73.51 1.73 1.14 1 .62 2.33 1.14 1.34.51 3.22.51 2.87 0 4.45-1.36 1.57-1.37 1.57-3.92 0-1.42-.71-2.32-.72-.9-1.89-1.51-1.17-.62-2.67-1.04-1.5-.43-3.05-.93t-3.05-1.2q-1.5-.69-2.68-1.82-1.17-1.13-1.89-2.81-.71-1.69-.71-4.17 0-1.97.79-3.85.79-1.87 2.29-3.32t3.7-2.33q2.19-.87 5.05-.87 3.2 0 5.89 1 2.71 1 4.61 2.8m14.07 33.15q-3.35 0-5.14-1.89t-1.79-5.21v-14.33h-2.62q-.5 0-.85-.32-.35-.33-.35-.98v-2.45l4.13-.67 1.3-7q.12-.5.47-.78.35-.27.9-.27h3.2v8.07h6.85v4.4h-6.85v13.9q0 1.2.59 1.88.59.67 1.61.67.58 0 .96-.13.39-.14.68-.29t.51-.29.45-.14q.27 0 .45.14t.38.41l1.85 3q-1.35 1.13-3.1 1.7-1.75.58-3.63.58m21.4-26.45q2.85 0 5.19.92 2.34.93 4 2.63t2.56 4.15.9 5.47q0 3.05-.9 5.5t-2.56 4.18q-1.66 1.72-4 2.65t-5.19.93q-2.87 0-5.22-.93t-4.02-2.65q-1.66-1.73-2.57-4.18t-.91-5.5q0-3.02.91-5.47t2.57-4.15q1.67-1.7 4.02-2.63 2.35-.92 5.22-.92m0 21.67q3.2 0 4.74-2.15t1.54-6.3-1.54-6.32q-1.54-2.18-4.74-2.18-3.25 0-4.81 2.19t-1.56 6.31q0 4.13 1.56 6.29t4.81 2.16m17.45-32.77h6.18v37.15h-6.18zm17.23 21.37h11.65q0-1.2-.34-2.26t-1.01-1.86q-.68-.8-1.72-1.26-1.03-.47-2.41-.47-2.67 0-4.21 1.53t-1.96 4.32m15.75 3.73h-15.88q.15 1.97.7 3.41t1.45 2.38q.9.93 2.14 1.4 1.24.46 2.74.46t2.58-.35q1.09-.35 1.9-.78.82-.42 1.43-.77t1.19-.35q.77 0 1.15.57l1.77 2.25q-1.02 1.2-2.3 2.02-1.27.81-2.66 1.3-1.39.48-2.83.69-1.43.2-2.78.2-2.68 0-4.98-.89t-4-2.63-2.67-4.3q-.98-2.56-.98-5.94 0-2.62.85-4.93.85-2.32 2.44-4.03t3.87-2.71q2.29-1 5.17-1 2.42 0 4.47.77 2.05.78 3.53 2.27 1.47 1.48 2.31 3.65.84 2.16.84 4.93 0 1.4-.3 1.89t-1.15.49m11.42-12.48.43 2.03q.77-.78 1.63-1.44.87-.66 1.83-1.12.96-.47 2.06-.73t2.4-.26q2.1 0 3.73.71 1.62.71 2.71 2t1.65 3.08q.56 1.78.56 3.94v16.32h-6.17v-16.32q0-2.36-1.08-3.64-1.07-1.29-3.27-1.29-1.6 0-3 .72-1.4.73-2.65 1.98v18.55h-6.18v-25.65h3.78q1.2 0 1.57 1.12m60.8 16q.55 0 .98.43l2.65 2.87q-2.2 2.73-5.42 4.18-3.21 1.45-7.71 1.45-4.02 0-7.24-1.38-3.21-1.37-5.48-3.82-2.28-2.45-3.49-5.85t-1.21-7.42q0-4.08 1.3-7.47t3.66-5.84 5.64-3.81q3.27-1.36 7.25-1.36 3.95 0 7.01 1.3t5.21 3.4l-2.25 3.12q-.2.3-.51.53-.31.22-.86.22-.38 0-.78-.21t-.87-.52q-.48-.32-1.1-.69-.63-.38-1.45-.69-.83-.31-1.92-.52-1.08-.22-2.51-.22-2.42 0-4.44.87-2.01.86-3.46 2.5-1.45 1.63-2.25 4-.8 2.36-.8 5.39 0 3.04.86 5.42.87 2.37 2.34 4 1.48 1.62 3.48 2.49 2 .86 4.3.86 1.37 0 2.48-.15 1.12-.15 2.05-.48.94-.32 1.78-.83.84-.52 1.66-1.27.25-.22.53-.36.27-.14.57-.14m13.45-28.62v14.25q1.5-1.4 3.3-2.28 1.8-.87 4.23-.87 2.1 0 3.72.71 1.63.71 2.71 2 1.09 1.29 1.65 3.08.57 1.78.57 3.94v16.32h-6.18v-16.32q0-2.36-1.07-3.64-1.08-1.29-3.28-1.29-1.6 0-3 .72-1.4.73-2.65 1.98v18.55h-6.17v-37.15zm22.23 11.5h6.2v25.65h-6.2zm7.05-7.48q0 .8-.33 1.5-.32.7-.86 1.23-.54.52-1.26.84-.73.31-1.55.31-.8 0-1.52-.31-.71-.32-1.23-.84-.53-.53-.84-1.23t-.31-1.5q0-.82.31-1.55.31-.72.84-1.25.52-.52 1.23-.83.72-.32 1.52-.32.82 0 1.55.32.72.31 1.26.83.54.53.86 1.25.33.73.33 1.55m5.52-4.02h6.18v37.15h-6.18zm28.45 29.55v-11.5q-1.05-1.28-2.29-1.8-1.23-.53-2.66-.53-1.4 0-2.52.53-1.13.52-1.93 1.59-.8 1.06-1.22 2.7-.43 1.63-.43 3.86 0 2.25.36 3.81.37 1.56 1.04 2.55.68.99 1.65 1.43.98.43 2.18.43 1.92 0 3.27-.8t2.55-2.27m0-29.55h6.18v37.15h-3.78q-1.22 0-1.55-1.13l-.52-2.47q-1.55 1.77-3.57 2.87-2.01 1.11-4.68 1.11-2.1 0-3.85-.88t-3.02-2.54q-1.26-1.66-1.95-4.11-.68-2.45-.68-5.6 0-2.85.77-5.3.78-2.45 2.23-4.25t3.47-2.81q2.03-1.02 4.55-1.02 2.15 0 3.68.68 1.52.67 2.72 1.82z"/></svg>